<svg width="63" height="63" viewBox="0 0 63 63" fill="none" xmlns="http://www.w3.org/2000/svg">
<path d="M54.9859 21.8007C54.9594 19.8126 54.5872 17.8442 53.886 15.9837C53.2779 14.4143 52.3492 12.9891 51.1591 11.799C49.969 10.6089 48.5437 9.68015 46.9744 9.07207C45.1378 8.38263 43.1975 8.00984 41.2361 7.96957C38.7109 7.8567 37.9102 7.8252 31.5 7.8252C25.0898 7.8252 24.2681 7.8252 21.7613 7.96957C19.8008 8.01014 17.8614 8.38292 16.0256 9.07207C14.456 9.67973 13.0306 10.6083 11.8404 11.7985C10.6503 12.9886 9.72166 14.4141 9.114 15.9837C8.42318 17.8189 8.0512 19.7587 8.01413 21.7193C7.90125 24.2472 7.86713 25.0478 7.86713 31.4581C7.86713 37.8683 7.86713 38.6873 8.01413 41.1968C8.0535 43.1603 8.42363 45.0976 9.114 46.9377C9.72268 48.5068 10.652 49.9317 11.8425 51.1213C13.0331 52.311 14.4587 53.2392 16.0283 53.8467C17.859 54.5638 19.7987 54.9633 21.7639 55.0279C24.2918 55.1408 25.0924 55.1749 31.5026 55.1749C37.9129 55.1749 38.7345 55.1749 41.2414 55.0279C43.2027 54.9893 45.1431 54.6174 46.9796 53.9281C48.5486 53.3193 49.9735 52.3903 51.1635 51.2003C52.3535 50.0103 53.2825 48.5854 53.8913 47.0164C54.5816 45.1789 54.9517 43.2417 54.9911 41.2756C55.104 38.7503 55.1381 37.9497 55.1381 31.5368C55.1329 25.1266 55.1329 24.3128 54.9859 21.8007ZM31.4843 43.5803C24.78 43.5803 19.3489 38.1492 19.3489 31.4449C19.3489 24.7407 24.78 19.3096 31.4843 19.3096C34.7028 19.3096 37.7894 20.5881 40.0653 22.8639C42.3411 25.1398 43.6196 28.2264 43.6196 31.4449C43.6196 34.6634 42.3411 37.7501 40.0653 40.0259C37.7894 42.3018 34.7028 43.5803 31.4843 43.5803ZM44.1026 21.6904C42.5355 21.6904 41.2729 20.4252 41.2729 18.8607C41.2729 18.4893 41.346 18.1215 41.4882 17.7783C41.6303 17.4351 41.8387 17.1233 42.1013 16.8607C42.364 16.598 42.6758 16.3897 43.0189 16.2476C43.3621 16.1054 43.7299 16.0323 44.1013 16.0323C44.4727 16.0323 44.8405 16.1054 45.1837 16.2476C45.5269 16.3897 45.8387 16.598 46.1013 16.8607C46.364 17.1233 46.5723 17.4351 46.7144 17.7783C46.8566 18.1215 46.9297 18.4893 46.9297 18.8607C46.9297 20.4252 45.6645 21.6904 44.1026 21.6904Z" fill="black"/>
<path d="M31.4842 39.3278C35.8378 39.3278 39.3671 35.7985 39.3671 31.4449C39.3671 27.0913 35.8378 23.562 31.4842 23.562C27.1306 23.562 23.6014 27.0913 23.6014 31.4449C23.6014 35.7985 27.1306 39.3278 31.4842 39.3278Z" fill="black"/>
</svg>
