<svg width="63" height="63" viewBox="0 0 63 63" fill="none" xmlns="http://www.w3.org/2000/svg">
<g clip-path="url(#clip0)">
<path fill-rule="evenodd" clip-rule="evenodd" d="M61.5563 15.6135C61.992 14.1802 61.5563 13.125 59.4694 13.125H52.5788C50.8253 13.125 50.0168 14.0359 49.5784 15.0412C49.5784 15.0412 46.074 23.4307 41.1101 28.8802C39.5036 30.4605 38.7739 30.9619 37.8971 30.9619C37.4588 30.9619 36.7999 30.4605 36.7999 29.0246V15.6135C36.7999 13.8915 36.3169 13.125 34.8574 13.125H24.0214C22.9268 13.125 22.2679 13.923 22.2679 14.6816C22.2679 16.3117 24.7511 16.6897 25.0058 21.2782V31.248C25.0058 33.4346 24.6041 33.831 23.7274 33.831C21.3911 33.831 15.708 25.4021 12.3349 15.7579C11.6813 13.881 11.0198 13.125 9.25838 13.125H2.3625C0.39375 13.125 0 14.0359 0 15.0412C0 16.8315 2.33625 25.725 10.8806 37.4876C16.5769 45.5201 24.5963 49.875 31.9016 49.875C36.2828 49.875 36.8235 48.909 36.8235 47.2421V41.1705C36.8235 39.2359 37.2383 38.85 38.6269 38.85C39.6506 38.85 41.4015 39.354 45.4913 43.2259C50.1638 47.817 50.9329 49.875 53.5631 49.875H60.4538C62.4225 49.875 63.4095 48.909 62.8425 46.998C62.2178 45.0975 59.9865 42.3386 57.0281 39.0653C55.4216 37.2015 53.0119 35.1934 52.2795 34.188C51.2584 32.8991 51.5498 32.3242 52.2795 31.1771C52.2795 31.1771 60.6795 19.5589 61.5536 15.6135H61.5563Z" fill="black"/>
</g>
<defs>
<clipPath id="clip0">
<rect width="63" height="63" fill="white"/>
</clipPath>
</defs>
</svg>
