<svg width="63" height="63" viewBox="0 0 63 63" fill="none" xmlns="http://www.w3.org/2000/svg">
<g clip-path="url(#clip0)">
<path d="M61.6875 17.0807C61.3308 15.8082 60.6359 14.6561 59.6767 13.747C58.6905 12.8098 57.4817 12.1395 56.1645 11.7992C51.2347 10.4998 31.4843 10.4998 31.4843 10.4998C23.2505 10.4062 15.0188 10.8182 6.8355 11.7336C5.51825 12.099 4.31173 12.7843 3.32325 13.7286C2.352 14.6631 1.6485 15.8155 1.281 17.0781C0.398197 21.8339 -0.0307308 26.6629 2.67418e-06 31.4998C-0.0314973 36.3325 0.396378 41.1598 1.281 45.9216C1.64063 47.179 2.3415 48.3261 3.31538 49.2527C4.28925 50.1793 5.502 50.8487 6.8355 51.2031C11.8309 52.4998 31.4843 52.4998 31.4843 52.4998C39.7285 52.5936 47.9707 52.1816 56.1645 51.2661C57.4817 50.9258 58.6905 50.2554 59.6767 49.3183C60.648 48.3917 61.3384 47.2393 61.6849 45.9846C62.5907 41.2306 63.0312 36.3996 63 31.5602C63.0681 26.7003 62.6282 21.8466 61.6875 17.0781V17.0807ZM25.2052 40.4878V22.5145L41.6377 31.5025L25.2052 40.4878Z" fill="black"/>
</g>
<defs>
<clipPath id="clip0">
<rect width="63" height="63" fill="white"/>
</clipPath>
</defs>
</svg>
